<svg class="icon" viewBox="0 0 1024 1024" xmlns="http://www.w3.org/2000/svg" width="18" height="18"><defs><style/></defs><path d="M511.998 64.766c-246.307 0-446.006 199.7-446.006 446.006 0 246.304 199.7 446.003 446.006 446.003 246.31 0 446.009-199.7 446.009-446.003 0-246.307-199.7-446.006-446.009-446.006zm0 836.266c-215.165 0-390.255-175.096-390.255-390.26 0-215.158 175.09-390.25 390.255-390.25 215.167 0 390.255 175.09 390.255 390.25 0 215.164-175.088 390.26-390.255 390.26zm0-501.756c-30.764 0-55.748 24.99-55.748 55.745v278.754c0 30.766 24.985 55.754 55.748 55.754 30.764 0 55.75-24.987 55.75-55.754V455.021c0-30.754-24.986-55.745-55.75-55.745zm0-167.255c-30.764 0-55.748 24.982-55.748 55.754 0 30.76 24.985 55.748 55.748 55.748 30.764 0 55.75-24.987 55.75-55.748 0-30.772-24.986-55.754-55.75-55.754z"/></svg>