<?xml version="1.0" standalone="no"?><!DOCTYPE svg PUBLIC "-//W3C//DTD SVG 1.1//EN" "http://www.w3.org/Graphics/SVG/1.1/DTD/svg11.dtd"><svg t="1568967695868" class="icon" viewBox="0 0 1024 1024" version="1.1" xmlns="http://www.w3.org/2000/svg" p-id="8062" xmlns:xlink="http://www.w3.org/1999/xlink" width="18" height="18"><defs><style type="text/css"></style></defs><path d="M951.925029 807.043657l-80.310858-111.850057V457.201371c0-183.281371-146.285714-336.7936-336.457142-350.632228V76.1856a29.257143 29.257143 0 0 0-58.514286 0v30.529829c-175.542857 14.730971-321.828571 167.818971-321.828572 350.485942v237.9776l-81.173942 113.2544c-12.741486 17.832229-14.584686 33.923657-4.549486 53.408915s29.988571 24.385829 51.902171 24.385828h782.7456c21.9136 0 40.594286-4.900571 50.629486-24.385828s10.298514-36.9664-2.442971-54.798629zM120.992914 827.728457l92.335543-113.795657v-256.731429c0-160.168229 133.032229-302.3872 297.764572-302.3872h2.545371c164.746971 0 299.446857 142.218971 299.446857 302.3872v256.7168l90.638629 113.795658H120.992914z" p-id="8063"></path><path d="M689.239771 291.693714c-6.407314-4.959086-14.189714-3.774171-19.1488 2.589257-4.959086 6.392686-5.880686 15.5648 0.482743 20.523886 35.605943 27.604114 54.740114 70.5536 54.740115 114.907429v143.842743a14.628571 14.628571 0 1 0 29.257142 0v-143.842743c0.014629-53.321143-22.674286-104.916114-65.3312-138.020572zM627.317029 255.063771c-17.642057-5.178514-36.9664-12.478171-55.881143-12.478171h-1.4336c-8.0896 0-13.9264 11.117714-13.9264 19.207314s7.255771 16.910629 15.345371 16.910629c16.164571 0 32.650971 3.4816 47.659886 7.8848 1.375086 0.394971 2.750171 1.155657 4.110628 1.155657 6.334171 0 12.170971-6.129371 14.043429-12.507429 2.282057-7.767771-2.165029-17.905371-9.918171-20.1728zM599.259429 915.499886h-175.542858a29.257143 29.257143 0 0 0 0 58.514285h175.542858a29.257143 29.257143 0 0 0 0-58.514285z" p-id="8064"></path></svg>