<svg class="icon" viewBox="0 0 1024 1024" xmlns="http://www.w3.org/2000/svg" width="18" height="18"><defs><style/></defs><path d="M951.925 807.044l-80.31-111.85V457.2c0-183.281-146.287-336.793-336.458-350.632V76.186a29.257 29.257 0 00-58.514 0v30.53C301.1 121.445 154.814 274.533 154.814 457.2V695.18L73.64 808.433c-12.741 17.833-14.584 33.924-4.55 53.41s29.99 24.385 51.903 24.385h782.746c21.913 0 40.594-4.9 50.629-24.386s10.299-36.966-2.443-54.798zm-830.932 20.684l92.335-113.795V457.2c0-160.168 133.033-302.387 297.765-302.387h2.545c164.747 0 299.447 142.22 299.447 302.387v256.717l90.639 113.796H120.993z"/><path d="M689.24 291.694c-6.408-4.96-14.19-3.774-19.149 2.589-4.96 6.393-5.88 15.565.483 20.524 35.606 27.604 54.74 70.553 54.74 114.907v143.843a14.629 14.629 0 1029.257 0V429.714c.015-53.32-22.674-104.916-65.331-138.02zm-61.923-36.63c-17.642-5.179-36.966-12.478-55.881-12.478h-1.434c-8.09 0-13.926 11.117-13.926 19.207s7.256 16.91 15.345 16.91c16.165 0 32.651 3.482 47.66 7.885 1.375.395 2.75 1.156 4.11 1.156 6.335 0 12.172-6.13 14.044-12.507 2.282-7.768-2.165-17.906-9.918-20.173zM599.259 915.5H423.717a29.257 29.257 0 000 58.514h175.542a29.257 29.257 0 000-58.514z"/></svg>