<?xml version="1.0" standalone="no"?><!DOCTYPE svg PUBLIC "-//W3C//DTD SVG 1.1//EN" "http://www.w3.org/Graphics/SVG/1.1/DTD/svg11.dtd"><svg t="1569726717017" class="icon" viewBox="0 0 1024 1024" version="1.1" xmlns="http://www.w3.org/2000/svg" p-id="1179" xmlns:xlink="http://www.w3.org/1999/xlink" width="18" height="18"><defs><style type="text/css"></style></defs><path d="M877.714286 457.142857h-77.714286V201.142857c0-80.8-65.485714-146.285714-146.285714-146.285714H370.285714c-80.8 0-146.285714 65.485714-146.285714 146.285714v256h-77.714286c-20.228571 0-36.571429 16.342857-36.571428 36.571429v438.857143c0 20.228571 16.342857 36.571429 36.571428 36.571428h731.428572c20.228571 0 36.571429-16.342857 36.571428-36.571428V493.714286c0-20.228571-16.342857-36.571429-36.571428-36.571429zM544 728v60.571429c0 5.028571-4.114286 9.142857-9.142857 9.142857h-45.714286c-5.028571 0-9.142857-4.114286-9.142857-9.142857v-60.571429a54.868571 54.868571 0 1 1 64 0z m173.714286-270.857143H306.285714V201.142857c0-35.314286 28.685714-64 64-64h283.428572c35.314286 0 64 28.685714 64 64v256z" p-id="1180"></path></svg>