<?xml version="1.0" standalone="no"?><!DOCTYPE svg PUBLIC "-//W3C//DTD SVG 1.1//EN" "http://www.w3.org/Graphics/SVG/1.1/DTD/svg11.dtd"><svg t="1569663420861" class="icon" viewBox="0 0 1024 1024" version="1.1" xmlns="http://www.w3.org/2000/svg" p-id="1149" xmlns:xlink="http://www.w3.org/1999/xlink" width="18" height="18"><defs><style type="text/css"></style></defs><path d="M759.273 419.635q-2.909 0-12.364 0 0-14.545 0-56.727 0-64-31.273-117.818-32-53.818-86.545-85.091-53.818-32-117.091-32-63.273 0-117.818 32-53.818 31.273-85.818 85.091-31.273 53.818-31.273 117.818 0 18.909 0 56.727-2.909 0-12.364 0-24 0-42.182 17.455-17.455 18.182-17.455 42.182 0 16 0 48.727 0 35.636 0 106.909 0 71.273 0 178.182 0 24 17.455 42.182 18.182 17.455 42.182 17.455 165.091 0 494.545 0 24 0 42.182-17.455 17.455-18.182 17.455-42.182 0-111.273 0-333.818 0-25.455-17.455-42.909-17.455-16.727-42.182-16.727zM512 157.817q84.364 0 144.727 60.364 60.364 59.636 60.364 144.727 0 18.909 0 56.727-102.545 0-410.182 0 0-14.545 0-56.727 0-85.091 60.364-144.727 60.364-60.364 144.727-60.364zM789.091 813.089q0 12.364-9.455 21.091-8.727 8.727-20.364 8.727-165.091 0-494.545 0-11.636 0-20.364-8.727-9.455-8.727-9.455-21.091 0-41.455 0-125.091 0-13.091 0-33.455 0-14.545 0-33.455 0-54.545 0-141.818 0-12.364 9.455-21.091 8.727-8.727 20.364-8.727 165.091 0 494.545 0 11.636 0 20.364 8.727 9.455 8.727 9.455 21.091 0 111.273 0 333.818zM512 565.089q-15.273 0-25.455 10.909-10.182 11.636-10.182 28.364 0 21.091 18.182 33.455 0 21.818 0 64.727 0 8.727 5.818 13.818 5.091 5.818 12.364 5.818 8 0 13.818-5.818 5.091-5.091 5.091-13.818 0-21.818 0-65.455 18.909-12.364 18.909-33.455-2.182-16-13.091-27.636-10.909-10.909-25.455-10.909z" p-id="1150"></path></svg>