<svg class="icon" viewBox="0 0 1024 1024" xmlns="http://www.w3.org/2000/svg" width="18" height="18"><defs><style/></defs><path d="M576 256H96c-19.2 0-32-12.8-32-32s12.8-32 32-32h480c19.2 0 32 12.8 32 32s-12.8 32-32 32zm0 288H96c-19.2 0-32-12.8-32-32s12.8-32 32-32h480c19.2 0 32 12.8 32 32s-12.8 32-32 32zm352 288H96c-19.2 0-32-12.8-32-32s12.8-32 32-32h832c19.2 0 32 12.8 32 32s-12.8 32-32 32zm0-288c9.6 0 16-3.2 22.4-9.6 12.8-12.8 9.6-32-3.2-44.8L812.8 368l134.4-121.6c12.8-12.8 12.8-32 3.2-44.8-12.8-12.8-32-12.8-44.8-3.2l-160 144c-6.4 6.4-9.6 16-9.6 22.4s3.2 19.2 9.6 22.4l160 144c6.4 9.6 16 12.8 22.4 12.8z"/></svg>