<svg width="322" height="150"><path d="M0 56.25Q21.467 31 24.77 30c4.953-1.5 19.815 6.75 24.768 11.25s19.816 33 24.77 33.75 19.815-25.313 24.769-26.25 19.815 13.313 24.77 16.875 19.815 16.875 24.768 18.75 19.816 1.875 24.77 0 19.815-15.938 24.769-18.75 19.815-9.375 24.77-9.375 19.814 7.5 24.768 9.375 19.816 11.25 24.77 9.375 19.815-25.313 24.769-28.125q3.302-1.875 24.769 0V75l-24.77 9.375c-4.953 1.875-19.815 6.563-24.768 9.375s-19.816 19.688-24.77 18.75-19.815-27.188-24.769-28.125-19.815 15.938-24.77 18.75-19.815 9.375-24.768 9.375-19.816-5.625-24.77-9.375S128.8 76.312 123.846 75s-19.815 11.25-24.77 15-19.814 22.125-24.768 22.5-19.816-15.938-24.77-18.75-19.815-9.375-24.769-9.375q-3.302 0-24.769 9.375z" class="area" fill="rgba(255,255,255,0.4)"/><path d="M0 93.75q21.467-9.375 24.77-9.375c4.953 0 19.815 6.563 24.768 9.375s19.816 19.125 24.77 18.75S94.123 93.75 99.077 90s19.815-16.313 24.77-15 19.815 24.375 24.768 28.125 19.816 9.375 24.77 9.375 19.815-6.563 24.769-9.375 19.815-19.688 24.77-18.75 19.814 27.188 24.768 28.125 19.816-15.938 24.77-18.75 19.815-7.5 24.769-9.375L322 75v75H0z" class="area" fill="#1061b4"/></svg>