<svg width="322" height="150"><g><path d="M0,56.25Q21.46666666666667,30.999999999999993,24.76923076923077,29.999999999999993C29.723076923076924,28.499999999999993,44.58461538461539,36.75,49.53846153846154,41.25S69.35384615384615,74.25,74.3076923076923,75S94.12307692307692,49.68749999999999,99.07692307692308,48.74999999999999S118.8923076923077,62.0625,123.84615384615385,65.625S143.66153846153847,82.5,148.6153846153846,84.375S168.43076923076924,86.25,173.3846153846154,84.375S193.20000000000002,68.4375,198.15384615384616,65.625S217.96923076923076,56.25,222.9230769230769,56.25S242.73846153846156,63.75,247.6923076923077,65.625S267.5076923076923,76.875,272.46153846153845,75S292.2769230769231,49.6875,297.2307692307692,46.875Q300.5333333333333,45,322,46.875L322,75Q300.5333333333333,83.125,297.2307692307692,84.375C292.2769230769231,86.25,277.4153846153846,90.9375,272.46153846153845,93.75S252.64615384615385,113.4375,247.6923076923077,112.5S227.87692307692305,85.3125,222.9230769230769,84.375S203.1076923076923,100.3125,198.15384615384616,103.125S178.33846153846153,112.5,173.3846153846154,112.5S153.56923076923076,106.875,148.6153846153846,103.125S128.8,76.3125,123.84615384615385,75S104.03076923076924,86.25,99.07692307692308,90S79.26153846153846,112.125,74.3076923076923,112.5S54.49230769230769,96.5625,49.53846153846154,93.75S29.723076923076924,84.375,24.76923076923077,84.375Q21.46666666666667,84.375,0,93.75Z" class="area" fill="rgba(255,255,255,0.4)"></path></g><g><path d="M0,93.75Q21.46666666666667,84.375,24.76923076923077,84.375C29.723076923076924,84.375,44.58461538461539,90.9375,49.53846153846154,93.75S69.35384615384615,112.875,74.3076923076923,112.5S94.12307692307692,93.75,99.07692307692308,90S118.8923076923077,73.6875,123.84615384615385,75S143.66153846153847,99.375,148.6153846153846,103.125S168.43076923076924,112.5,173.3846153846154,112.5S193.20000000000002,105.9375,198.15384615384616,103.125S217.96923076923076,83.4375,222.9230769230769,84.375S242.73846153846156,111.5625,247.6923076923077,112.5S267.5076923076923,96.5625,272.46153846153845,93.75S292.2769230769231,86.25,297.2307692307692,84.375Q300.5333333333333,83.125,322,75L322,150Q300.5333333333333,150,297.2307692307692,150C292.2769230769231,150,277.4153846153846,150,272.46153846153845,150S252.64615384615385,150,247.6923076923077,150S227.87692307692305,150,222.9230769230769,150S203.1076923076923,150,198.15384615384616,150S178.33846153846153,150,173.3846153846154,150S153.56923076923076,150,148.6153846153846,150S128.8,150,123.84615384615385,150S104.03076923076924,150,99.07692307692308,150S79.26153846153846,150,74.3076923076923,150S54.49230769230769,150,49.53846153846154,150S29.723076923076924,150,24.76923076923077,150Q21.46666666666667,150,0,150Z" class="area" fill="#1061b4"></path></g></svg>